<svg xmlns="http://www.w3.org/2000/svg" width="500" height="500" viewBox="0 0 500 500"><rect x="0" y="0" width="500" height="500" fill="#1b4d80"/><g transform="translate(172,354)translate(86,14.5)rotate(0)translate(-86,-14.5)" opacity="1"><path transform="translate(6,0)rotate(0)" d="M16.72 6.03L16.72 20L14.89 20L14.89 8.18L14.79 8.18L10.29 20L8.42 20L3.79 8.18L3.68 8.18L3.68 20L1.81 20L1.81 6.03L4.93 6.03L9.41 17.65L9.47 17.68L13.71 6.03L16.72 6.03ZM28.97 6.03L34.40 20L32.22 20L30.63 15.76L24.65 15.76L23.07 20L21.01 20L26.56 6.03L28.97 6.03ZM25.18 14.32L30.11 14.32L27.74 8.01L27.55 8.01L25.18 14.32ZM46.88 6.03L49.27 6.03L44.19 14.30L44.19 20L42.10 20L42.10 14.36L37.04 6.03L39.43 6.03L43.16 12.60L46.88 6.03ZM69.63 18.49L69.63 20L60.25 20L60.25 17.50L60.25 17.50Q60.25 16.88 60.46 16.35L60.46 16.35L60.46 16.35Q60.68 15.82 60.97 15.48L60.97 15.48L60.97 15.48Q61.26 15.14 61.82 14.78L61.82 14.78L61.82 14.78Q62.38 14.43 62.75 14.23L62.75 14.23L62.75 14.23Q63.13 14.04 63.84 13.74L63.84 13.74L66.17 12.70L66.17 12.70Q67.54 12.08 67.54 10.83L67.54 10.83L67.54 8.92L67.54 8.92Q67.54 7.90 66.91 7.58L66.91 7.58L66.91 7.58Q66.27 7.26 64.83 7.26L64.83 7.26L64.83 7.26Q63.35 7.26 60.74 7.71L60.74 7.71L60.74 6.20L60.74 6.20Q62.98 5.79 65.24 5.79L65.24 5.79L65.24 5.79Q67.54 5.79 68.59 6.48L68.59 6.48L68.59 6.48Q69.63 7.17 69.63 8.83L69.63 8.83L69.63 11.11L69.63 11.11Q69.63 12.27 69.03 12.88L69.03 12.88L69.03 12.88Q68.43 13.48 66.88 14.19L66.88 14.19L63.65 15.67L63.65 15.67Q62.23 16.32 62.23 17.57L62.23 17.57L62.23 18.49L69.63 18.49ZM84.29 14.60L84.29 14.60L84.29 16.64L84.29 16.64Q84.29 17.80 83.92 18.56L83.92 18.56L83.92 18.56Q83.56 19.31 82.82 19.66L82.82 19.66L82.82 19.66Q82.09 20 81.36 20.11L81.36 20.11L81.36 20.11Q80.63 20.22 79.55 20.22L79.55 20.22L79.55 20.22Q78.67 20.22 78.08 20.16L78.08 20.16L78.08 20.16Q77.49 20.11 76.82 19.90L76.82 19.90L76.82 19.90Q76.15 19.70 75.76 19.32L75.76 19.32L75.76 19.32Q75.38 18.95 75.12 18.27L75.12 18.27L75.12 18.27Q74.86 17.59 74.86 16.64L74.86 16.64L74.86 9.58L74.86 9.58Q74.86 8.57 75.18 7.85L75.18 7.85L75.18 7.85Q75.51 7.13 75.98 6.73L75.98 6.73L75.98 6.73Q76.45 6.33 77.22 6.12L77.22 6.12L77.22 6.12Q77.98 5.90 78.61 5.85L78.61 5.85L78.61 5.85Q79.23 5.79 80.09 5.79L80.09 5.79L80.09 5.79Q81.40 5.79 83.62 5.99L83.62 5.99L83.62 7.45L83.62 7.45Q81.34 7.17 79.81 7.17L79.81 7.17L79.81 7.17Q78.13 7.17 77.45 7.59L77.45 7.59L77.45 7.59Q76.78 8.01 76.78 9.54L76.78 9.54L76.78 11.73L79.94 11.73L79.94 11.73Q80.95 11.73 81.51 11.77L81.51 11.77L81.51 11.77Q82.07 11.80 82.70 11.95L82.70 11.95L82.70 11.95Q83.32 12.10 83.61 12.40L83.61 12.40L83.61 12.40Q83.90 12.70 84.09 13.24L84.09 13.24L84.09 13.24Q84.29 13.78 84.29 14.60ZM82.37 16.75L82.37 16.75L82.37 14.66L82.37 14.66Q82.37 13.63 81.85 13.31L81.85 13.31L81.85 13.31Q81.32 12.98 79.57 12.98L79.57 12.98L76.78 12.98L76.78 16.75L76.78 16.75Q76.78 18.15 77.39 18.55L77.39 18.55L77.39 18.55Q78.00 18.95 79.60 18.95L79.60 18.95L79.60 18.95Q81.19 18.95 81.78 18.56L81.78 18.56L81.78 18.56Q82.37 18.17 82.37 16.75ZM89.80 17.68L92.08 17.68L90.06 22.41L88.81 22.41L89.80 17.68ZM113.67 18.49L113.67 20L104.28 20L104.28 17.50L104.28 17.50Q104.28 16.88 104.50 16.35L104.50 16.35L104.50 16.35Q104.71 15.82 105.01 15.48L105.01 15.48L105.01 15.48Q105.30 15.14 105.86 14.78L105.86 14.78L105.86 14.78Q106.42 14.43 106.79 14.23L106.79 14.23L106.79 14.23Q107.17 14.04 107.88 13.74L107.88 13.74L110.20 12.70L110.20 12.70Q111.58 12.08 111.58 10.83L111.58 10.83L111.58 8.92L111.58 8.92Q111.58 7.90 110.95 7.58L110.95 7.58L110.95 7.58Q110.31 7.26 108.87 7.26L108.87 7.26L108.87 7.26Q107.38 7.26 104.78 7.71L104.78 7.71L104.78 6.20L104.78 6.20Q107.02 5.79 109.28 5.79L109.28 5.79L109.28 5.79Q111.58 5.79 112.62 6.48L112.62 6.48L112.62 6.48Q113.67 7.17 113.67 8.83L113.67 8.83L113.67 11.11L113.67 11.11Q113.67 12.27 113.07 12.88L113.07 12.88L113.07 12.88Q112.46 13.48 110.91 14.19L110.91 14.19L107.69 15.67L107.69 15.67Q106.26 16.32 106.26 17.57L106.26 17.57L106.26 18.49L113.67 18.49ZM128.54 9.56L128.54 9.56L128.54 16.64L128.54 16.64Q128.54 17.57 128.25 18.25L128.25 18.25L128.25 18.25Q127.96 18.92 127.52 19.30L127.52 19.30L127.52 19.30Q127.08 19.68 126.39 19.89L126.39 19.89L126.39 19.89Q125.70 20.11 125.08 20.16L125.08 20.16L125.08 20.16Q124.45 20.22 123.59 20.22L123.59 20.22L123.59 20.22Q122.71 20.22 122.10 20.16L122.10 20.16L122.10 20.16Q121.48 20.11 120.78 19.90L120.78 19.90L120.78 19.90Q120.08 19.70 119.66 19.32L119.66 19.32L119.66 19.32Q119.24 18.95 118.96 18.27L118.96 18.27L118.96 18.27Q118.68 17.59 118.68 16.64L118.68 16.64L118.68 9.58L118.68 9.58Q118.68 8.57 118.97 7.85L118.97 7.85L118.97 7.85Q119.27 7.13 119.70 6.73L119.70 6.73L119.70 6.73Q120.13 6.33 120.84 6.12L120.84 6.12L120.84 6.12Q121.55 5.90 122.14 5.85L122.14 5.85L122.14 5.85Q122.73 5.79 123.59 5.79L123.59 5.79L123.59 5.79Q124.47 5.79 125.08 5.85L125.08 5.85L125.08 5.85Q125.68 5.90 126.39 6.12L126.39 6.12L126.39 6.12Q127.10 6.33 127.53 6.72L127.53 6.72L127.53 6.72Q127.96 7.11 128.25 7.83L128.25 7.83L128.25 7.83Q128.54 8.55 128.54 9.56ZM126.58 16.75L126.58 16.75L126.58 9.43L126.58 9.43Q126.58 7.90 125.91 7.48L125.91 7.48L125.91 7.48Q125.23 7.06 123.61 7.06L123.61 7.06L123.61 7.06Q121.96 7.06 121.30 7.48L121.30 7.48L121.30 7.48Q120.64 7.90 120.64 9.43L120.64 9.43L120.64 16.75L120.64 16.75Q120.64 18.15 121.33 18.55L121.33 18.55L121.33 18.55Q122.02 18.95 123.63 18.95L123.63 18.95L123.63 18.95Q125.25 18.95 125.92 18.55L125.92 18.55L125.92 18.55Q126.58 18.15 126.58 16.75ZM140.75 6.03L140.75 20L138.87 20L138.87 7.97L134.63 10.74L134.63 8.98L138.90 6.03L140.75 6.03ZM157.60 9.37L157.60 9.37L157.60 16.43L157.60 16.43Q157.60 18.49 156.38 19.35L156.38 19.35L156.38 19.35Q155.17 20.22 152.48 20.22L152.48 20.22L152.48 20.22Q150.65 20.22 148.84 19.98L148.84 19.98L148.84 18.54L148.84 18.54Q150.84 18.90 152.41 18.90L152.41 18.90L152.41 18.90Q154.26 18.90 154.97 18.31L154.97 18.31L154.97 18.31Q155.68 17.72 155.68 16.13L155.68 16.13L155.68 14.30L152.52 14.30L152.52 14.30Q151.51 14.30 150.95 14.26L150.95 14.26L150.95 14.26Q150.39 14.23 149.76 14.08L149.76 14.08L149.76 14.08Q149.14 13.93 148.85 13.63L148.85 13.63L148.85 13.63Q148.56 13.33 148.37 12.79L148.37 12.79L148.37 12.79Q148.17 12.25 148.17 11.43L148.17 11.43L148.17 9.37L148.17 9.37Q148.17 8.20 148.54 7.45L148.54 7.45L148.54 7.45Q148.90 6.70 149.64 6.35L149.64 6.35L149.64 6.35Q150.37 6.01 151.10 5.90L151.10 5.90L151.10 5.90Q151.83 5.79 152.91 5.79L152.91 5.79L152.91 5.79Q153.79 5.79 154.38 5.85L154.38 5.85L154.38 5.85Q154.97 5.90 155.64 6.11L155.64 6.11L155.64 6.11Q156.31 6.31 156.70 6.69L156.70 6.69L156.70 6.69Q157.08 7.06 157.34 7.74L157.34 7.74L157.34 7.74Q157.60 8.42 157.60 9.37ZM155.68 13.05L155.68 9.26L155.68 9.26Q155.68 7.86 155.07 7.46L155.07 7.46L155.07 7.46Q154.46 7.06 152.86 7.06L152.86 7.06L152.86 7.06Q151.27 7.06 150.68 7.45L150.68 7.45L150.68 7.45Q150.09 7.84 150.09 9.26L150.09 9.26L150.09 11.37L150.09 11.37Q150.09 12.40 150.61 12.72L150.61 12.72L150.61 12.72Q151.14 13.05 152.89 13.05L152.89 13.05L155.68 13.05Z" fill="#feaa91"/></g><g transform="translate(118,305)translate(140.5,31)rotate(0)translate(-140.5,-31)" opacity="1"><path transform="translate(6,0)rotate(0)" d="M27.60 13.85L27.60 19.18L18.05 19.18L18.05 45L10.56 45L10.56 19.18L0.96 19.18L0.96 13.85L27.60 13.85ZM60.14 13.85L60.14 45L52.66 45L52.66 31.66L39.41 31.66L39.41 45L31.92 45L31.92 13.85L39.41 13.85L39.41 26.33L52.66 26.33L52.66 13.85L60.14 13.85ZM91.10 39.67L91.10 45L66.86 45L66.86 13.85L90.62 13.85L90.62 19.18L74.35 19.18L74.35 26.33L89.04 26.33L89.04 31.66L74.35 31.66L74.35 39.67L91.10 39.67ZM135.41 13.85L135.41 45L127.92 45L127.92 31.66L114.67 31.66L114.67 45L107.18 45L107.18 13.85L114.67 13.85L114.67 26.33L127.92 26.33L127.92 13.85L135.41 13.85ZM161.57 13.85L169.06 13.85L169.06 36.46L169.06 36.46Q169.06 45.48 155.52 45.48L155.52 45.48L155.52 45.48Q142.03 45.48 142.03 36.46L142.03 36.46L142.03 13.85L149.52 13.85L149.52 36.46L149.52 36.46Q149.52 38.57 150.91 39.36L150.91 39.36L150.91 39.36Q152.30 40.15 155.62 40.15L155.62 40.15L155.62 40.15Q158.88 40.15 160.22 39.36L160.22 39.36L160.22 39.36Q161.57 38.57 161.57 36.46L161.57 36.46L161.57 13.85ZM194.40 32.18L203.42 45L194.78 45L186.62 32.76L183.17 32.76L183.17 45L175.68 45L175.68 13.85L189.70 13.85L189.70 13.85Q195.84 13.85 198.67 15.34L198.67 15.34L198.67 15.34Q201.50 16.82 201.50 20.42L201.50 20.42L201.50 25.90L201.50 25.90Q201.50 28.73 199.46 30.26L199.46 30.26L199.46 30.26Q197.42 31.80 194.40 32.18L194.40 32.18ZM194.16 24.41L194.16 24.41L194.16 22.20L194.16 22.20Q194.16 20.47 193.13 19.82L193.13 19.82L193.13 19.82Q192.10 19.18 189.60 19.18L189.60 19.18L183.17 19.18L183.17 27.82L189.60 27.82L189.60 27.82Q192.24 27.82 193.20 27.12L193.20 27.12L193.20 27.12Q194.16 26.42 194.16 24.41ZM235.78 23.30L235.78 23.30L235.78 35.98L235.78 35.98Q235.78 41.26 232.51 43.13L232.51 43.13L232.51 43.13Q229.25 45 221.04 45L221.04 45L207.74 45L207.74 13.85L220.99 13.85L220.99 13.85Q228.91 13.85 232.34 15.82L232.34 15.82L232.34 15.82Q235.78 17.78 235.78 23.30ZM228.29 35.98L228.29 35.98L228.29 23.16L228.29 23.16Q228.29 20.90 226.46 20.04L226.46 20.04L226.46 20.04Q224.64 19.18 220.94 19.18L220.94 19.18L215.23 19.18L215.23 39.67L220.70 39.67L220.70 39.67Q225.02 39.67 226.66 39.02L226.66 39.02L226.66 39.02Q228.29 38.38 228.29 35.98ZM265.73 34.06L265.73 34.06L265.73 36.12L265.73 36.12Q265.73 38.90 264.72 40.80L264.72 40.80L264.72 40.80Q263.71 42.70 261.74 43.68L261.74 43.68L261.74 43.68Q259.78 44.66 257.45 45.07L257.45 45.07L257.45 45.07Q255.12 45.48 251.90 45.48L251.90 45.48L251.90 45.48Q247.44 45.48 240.86 44.62L240.86 44.62L240.86 38.90L240.86 38.90Q248.83 40.15 252 40.15L252 40.15L252 40.15Q258.24 40.15 258.24 36.94L258.24 36.94L258.24 34.92L258.24 34.92Q258.24 33.53 257.42 32.64L257.42 32.64L257.42 32.64Q256.61 31.75 254.16 31.75L254.16 31.75L250.51 31.75L250.51 31.75Q240.24 31.75 240.24 23.59L240.24 23.59L240.24 21.29L240.24 21.29Q240.24 17.26 243.62 15.31L243.62 15.31L243.62 15.31Q247.01 13.37 254.45 13.37L254.45 13.37L254.45 13.37Q258.05 13.37 264.19 13.99L264.19 13.99L264.19 19.56L264.19 19.56Q256.90 18.70 254.21 18.70L254.21 18.70L254.21 18.70Q250.51 18.70 249.12 19.32L249.12 19.32L249.12 19.32Q247.73 19.94 247.73 21.43L247.73 21.43L247.73 23.64L247.73 23.64Q247.73 26.09 251.86 26.09L251.86 26.09L255.60 26.09L255.60 26.09Q261.07 26.09 263.40 28.10L263.40 28.10L263.40 28.10Q265.73 30.12 265.73 34.06Z" fill="#feaa91"/></g><g transform="translate(144,142)translate(61.5,69.5)rotate(0)translate(-61.5,-69.5) scale(0.8542141230068337,0.8542141230068337)" opacity="1"><defs class="defs"/><path fill="#feaa91" d="M143.992,71.996C143.992,32.297,111.695,0,71.996,0S0,32.297,0,71.996c0,24.159,11.974,45.562,30.285,58.627&#10;&#9;c-1.906,8.479-2.724,20.845,2.917,33.62c0,0,22-4.065,33.659-15.065h5.981h5.982c11.658,11,33.658,15.065,33.658,15.065&#10;&#9;c5.883-13.264,4.744-26.066,2.668-34.586C132.65,116.511,143.992,95.519,143.992,71.996z M113.294,123.421&#10;&#9;c-1-2.751-1.823-4.348-1.823-4.348c-23.824,4.359-32.646,16.104-32.646,16.104h-5.982h-5.981c0,0-8.82-11.745-32.646-16.104&#10;&#9;c0,0-1.036,1.986-2.196,5.379C16.219,112.383,6,93.365,6,71.993C6,35.602,35.605,5.998,71.996,5.998&#10;&#9;c36.391,0,65.996,29.607,65.996,65.997C137.992,92.765,128.339,111.313,113.294,123.421z" class="color c1"/></g><g transform="translate(241,118)translate(57,69.5)rotate(0)translate(-57,-69.5) scale(0.7917106505916995,0.7917106505916995)" opacity="1"><defs class="defs"/><path fill="#feaa91" d="M85.509,34.321L102.033,18H86.545l-5.959,15.562c-1.025-0.121-2.058-0.117-3.096-0.197L83.33,18H60.66&#10;&#9;l5.842,15.263c-1.038,0.078-2.071,0.279-3.097,0.402L57.447,18h-15.49l16.527,16.321C25.225,40.665,0,69.85,0,104.928&#10;&#9;c0,39.699,32.297,71.946,71.996,71.946s71.996-32.223,71.996-71.922C143.992,69.872,118.769,40.665,85.509,34.321z M71.996,170.822&#10;&#9;C35.605,170.822,6,141.217,6,104.826S35.605,38.83,71.996,38.83s65.996,29.605,65.996,65.996S108.387,170.822,71.996,170.822z&#10;&#9; M60.803,15l6.898-15h8.59l6.898,15H60.803z M57.518,15H41.816L55.475,0h8.918L57.518,15z M86.475,15L79.6,0h8.916l13.658,15H86.475&#10;&#9;z" class="color c1"/></g></svg>