<svg height="512pt" viewBox="0 0 512 512" width="512pt" xmlns="http://www.w3.org/2000/svg">
  <path d="m507.542969 25.667969-63.640625 63.640625c-5.9375 5.9375-15.269532 5.9375-21.210938 0-5.941406-5.941406-5.941406-15.273438 0-21.214844l63.640625-63.640625c5.9375-5.9375 15.273438-5.9375 21.210938 0 5.941406 5.941406 5.941406 15.273437 0 21.214844zm0 0" fill="#686868"/>
  <path d="m422.691406 89.308594 84.851563-84.855469c5.941406 5.941406 5.941406 15.273437 0 21.214844l-63.640625 63.640625c-5.9375 5.9375-15.269532 5.9375-21.210938 0zm0 0" fill="#686868"/>
  <path d="m83.28125 449.933594-57.613281 57.613281c-5.941407 5.9375-15.273438 5.9375-21.214844 0-5.9375-5.941406-5.9375-15.273437 0-21.214844l57.613281-57.613281c5.941406-5.9375 15.273438-5.9375 21.214844 0 5.9375 5.941406 5.9375 15.273438 0 21.214844zm0 0" fill="#686868"/>
  <path d="m83.28125 449.933594-57.613281 57.613281c-5.941407 5.9375-15.273438 5.9375-21.214844 0l78.828125-78.828125c5.9375 5.941406 5.9375 15.273438 0 21.214844zm0 0" fill="#686868"/>
  <path d="m168.132812 449.933594-21.214843 21.210937c-17.605469 17.609375-46.03125 17.609375-63.640625 0l-42.425782-42.425781c-17.605468-17.605469-17.605468-46.03125 0-63.640625l21.214844-21.210937c5.941406-5.941407 15.273438-5.941407 21.210938 0l84.855468 84.851562c5.941407 5.941406 5.941407 15.273438 0 21.214844zm0 0" fill="#AFA277"/>
  <path d="m168.132812 449.933594-21.214843 21.210937c-17.605469 17.609375-46.03125 17.609375-63.640625 0l-21.210938-21.210937 63.640625-63.640625 42.425781 42.425781c5.941407 5.941406 5.941407 15.273438 0 21.214844zm0 0" fill="#938864"/>
  <path d="m146.917969 280.226562c-5.863281-5.863281-5.863281-15.351562 0-21.210937l63.640625-63.640625c5.863281-5.863281 15.351562-5.863281 21.214844 0 5.859374 5.863281 5.863281 15.351562 0 21.210938l-63.640626 63.640624c-5.863281 5.863282-15.351562 5.863282-21.214843 0zm0 0" fill="#F4F4F4"/>
  <path d="m231.773438 365.078125c-5.863282-5.859375-5.863282-15.347656 0-21.210937l63.636718-63.640626c5.863282-5.863281 15.351563-5.863281 21.214844 0 5.863281 5.863282 5.863281 15.351563 0 21.214844l-63.640625 63.636719c-5.863281 5.863281-15.347656 5.863281-21.210937 0zm0 0" fill="#F4F4F4"/>
  <path d="m465.117188 152.949219-21.214844 21.210937c-5.9375 5.941406-15.269532 5.941406-21.210938 0l-84.851562-84.851562c-5.941406-5.941406-5.941406-15.273438 0-21.214844l21.210937-21.210938c17.605469-17.609374 46.03125-17.609374 63.640625 0l42.425782 42.425782c17.609374 17.605468 17.609374 46.03125 0 63.640625zm0 0" fill="#AFA277"/>
  <path d="m443.902344 216.585938-63.636719 63.640624-148.492187-148.492187 63.636718-63.640625c17.609375-17.605469 46.035156-17.605469 63.640625 0l84.855469 84.851562c17.605469 17.609376 17.605469 46.035157-.003906 63.640626zm0 0" fill="#C0B283"/>
  <path d="m274.199219 386.292969-63.640625 63.640625c-17.605469 17.605468-46.03125 17.605468-63.640625 0l-84.851563-84.855469c-17.605468-17.605469-17.605468-46.03125 0-63.636719l63.640625-63.640625zm0 0" fill="#C0B283"/>
  <path d="m422.691406 174.160156-42.425781-42.425781 63.640625-63.640625 21.210938 21.214844c17.609374 17.605468 17.609374 46.03125 0 63.640625l-21.210938 21.210937c-5.941406 5.941406-15.273438 5.941406-21.214844 0zm0 0" fill="#938864"/>
  <path d="m199.953125 312.046875 74.246094 74.246094-63.640625 63.640625c-17.609375 17.605468-46.03125 17.605468-63.640625 0l-42.425781-42.425782zm0 0" fill="#AFA277"/>
  <path d="m380.265625 280.226562-74.246094-74.246093 95.457031-95.457031 42.425782 42.425781c17.609375 17.605469 17.609375 46.03125 0 63.640625zm0 0" fill="#AFA277"/>
  <path d="m295.410156 407.507812c-5.9375 5.9375-15.269531 5.9375-21.210937 0l-169.707031-169.707031c-5.9375-5.941406-5.9375-15.273437 0-21.214843 5.941406-5.9375 15.273437-5.9375 21.214843 0l169.703125 169.707031c5.941406 5.941406 5.941406 15.273437 0 21.214843zm0 0" fill="#686868"/>
  <path d="m295.410156 407.507812c-5.9375 5.9375-15.269531 5.9375-21.210937 0l-84.851563-84.855468 21.210938-21.210938 84.851562 84.851563c5.941406 5.941406 5.941406 15.273437 0 21.214843zm0 0" fill="#686868"/>
  <path d="m401.476562 301.441406c-5.9375 5.9375-15.273437 5.9375-21.210937 0l-169.707031-169.707031c-5.941406-5.941406-5.941406-15.273437 0-21.214844 5.941406-5.9375 15.273437-5.9375 21.214844 0l169.703124 169.707031c5.941407 5.941407 5.941407 15.273438 0 21.214844zm0 0" fill="#686868"/>
  <path d="m401.476562 301.441406c-5.9375 5.9375-15.273437 5.9375-21.210937 0l-84.855469-84.855468 21.214844-21.210938 84.851562 84.851562c5.941407 5.941407 5.941407 15.273438 0 21.214844zm0 0" fill="#686868"/>
</svg>
