<?xml version="1.0" encoding="iso-8859-1"?>
<!-- Generator: Adobe Illustrator 19.0.0, SVG Export Plug-In . SVG Version: 6.00 Build 0)  -->
<svg version="1.1" id="Layer_1" xmlns="http://www.w3.org/2000/svg" xmlns:xlink="http://www.w3.org/1999/xlink" x="0px" y="0px"
	 viewBox="0 0 496.182 496.182" style="enable-background:new 0 0 496.182 496.182;" xml:space="preserve">
<path style="fill:#C0B283;" d="M248.094,0C111.074,0,0,111.063,0,248.091c0,137.012,111.074,248.091,248.094,248.091
	c137.012,0,248.088-111.079,248.088-248.091C496.182,111.063,385.106,0,248.094,0z"/>
<path style="fill:#2b4f84;" d="M283.885,203.94h-71.91c-7.92,0-11.027,16.857-11.027,23.484l3.943,110.328l0.244,86.742
	c0,1.078,5.314,1.555,5.363,2.545c0.213,5.121,1.273,7.025,5.965,7.025h10.58c4.598,0,6.842-1.75,7.502-6.705
	c0.146-1.078,2.955-2.381,2.955-3.564c0,0-0.729-85.994-0.711-86.732c1.352-44.754,3.313-90.615,5.713-91.342
	c4.713-1.418,7.326-1.418,10.854,0c1.807,0.727,3.799,46.967,5.314,91.895c0.02,0.709-0.291,86.168-0.291,86.168
	c0,1.098,2.787,2.314,2.916,3.324c0.611,5.082,2.855,6.957,7.529,6.957h10.57c4.898,0,5.84-2.227,6.006-7.676
	c0.02-0.787,5.334-1.051,5.334-1.895l0.264-87.092l3.914-109.979C294.912,220.797,291.813,203.94,283.885,203.94z"/>
<path style="fill:#84602d;" d="M304.862,216.541l-56.975,2.896l-56.891-2.848c-0.193,1.029-0.311,1.973-0.311,2.77l0.176,4.285
	l56.801,2.139l57.336-2.188l0.184-4.236C305.182,218.553,305.067,217.6,304.862,216.541z"/>
<g>
	<path style="fill:#24406d;" d="M183.807,88.561l2.371,135.852c0,4.75,13.059,5.15,45.104,5.15V62.092
		C198.965,62.803,183.807,62.918,183.807,88.561z"/>
	<path style="fill:#24406d;" d="M265.471,62.112v167.227c32.055,0,43.686-1.127,43.686-4.926l2.371-135.852
		C311.528,65.766,297.098,62.949,265.471,62.112z"/>
</g>
<path style="fill:#F4F4F4;" d="M248.381,72.295c-7.16,0-17.1-10.203-17.1-10.203v158.211l34.189-0.225V62.112
	C264.686,61.324,255.541,72.295,248.381,72.295z"/>
<path style="fill:#fcaa9c;" d="M248.381,72.295c-7.16,0-17.1-10.203-17.1-10.203v6.617c0,0,9.939,10.203,17.1,10.203
	s17.09-10.184,17.09-10.184v-6.617C264.686,61.324,255.541,72.295,248.381,72.295z"/>
<g>
	<path style="fill:#e28e81;" d="M254.717,69.633c-3.227-1.127-9.883-1.029-12.35,0c-2.479,1.029,1.865,10.533,1.865,10.533h8.793
		C253.026,80.166,256.358,70.535,254.717,69.633z"/>
	<path style="fill:#fcaa9c;" d="M242.367,69.633c-2.479,1.029,1.865,10.533,1.865,10.533h4.547l0.059-11.369
		C246.438,68.797,243.619,69.098,242.367,69.633z"/>
	<polygon style="fill:#e28e81;" points="253.016,79.922 244.262,79.922 235.77,167.096 248.613,177.766 260.467,167.096 	"/>
	<polygon style="fill:#fcaa9c;" points="244.262,79.922 235.77,167.096 248.613,177.766 248.721,79.922 	"/>
</g>
<g>
	<path style="fill:#84602d;" d="M273.965,420.393c-8.521,0-15.439,6.48-15.439,10.154c0,3.672,6.918,3.74,15.439,3.74
		s15.428-0.068,15.428-3.74C289.393,426.873,282.487,420.393,273.965,420.393z"/>
	<path style="fill:#84602d;" d="M222.322,420.393c-8.521,0-15.43,6.48-15.43,10.154c0,3.672,6.908,3.74,15.43,3.74
		s15.43-0.068,15.43-3.74C237.752,426.873,230.844,420.393,222.322,420.393z"/>
</g>
<path style="fill:#012142;" d="M191.113,72.897l-26.408,161.58c0,5.947,27.244,10.02,28.479,5.016L207.069,98.54L191.113,72.897z"/>
<path style="fill:#24406d;" d="M183.33,83.809l-18.344,148.377c0,0,10.805-0.35,25.408,4.586L207.068,98.54l7.598-6.326l5.229-29.77
	C190.969,59.227,185.994,70.645,183.33,83.809z"/>
<path style="fill:#012142;" d="M305.057,72.897L289.102,98.54l13.885,140.953c1.234,5.004,28.488,0.932,28.488-5.016L305.057,72.897
	z"/>
<path style="fill:#24406d;" d="M312.848,83.809c-2.672-13.164-7.646-24.582-36.561-21.365l5.217,29.77l7.598,6.326l16.674,138.232
	c14.604-4.936,25.408-4.586,25.408-4.586L312.848,83.809z"/>
</svg>
