<svg height="512pt" viewBox="-49 0 512 512.00068" width="512pt" xmlns="http://www.w3.org/2000/svg">
  <path d="m131.644531 0h151.660157l-48.449219 133.753906h-54.761719zm0 0" fill="#686868"/>
  <path d="m131.644531 0-56.753906 25.640625c-8.136719 3.679687-12.5 12.585937-10.496094 21.289063 1.277344 5.5625 1.957031 11.359374 1.957031 17.3125 0 35.109374-22.183593 79.125-55.140624 93.3125-6.824219 2.9375-11.210938 9.691406-11.210938 17.121093v229.566407c0 16.425781 8.675781 31.632812 22.816406 39.996093l110.128906 65.109375c6.824219 4.035156 15.433594 3.421875 21.613282-1.539062l80.296875-64.421875v-309.632813zm0 0" fill="#AFA277"/>
  <path d="m403.738281 157.554688c-32.960937-14.1875-55.140625-58.203126-55.140625-93.3125 0-5.953126.679688-11.75 1.957032-17.3125 2.003906-8.703126-2.355469-17.609376-10.496094-21.289063l-56.753906-25.640625-103.210938 133.753906v309.632813l80.296875 64.421875c6.179687 4.960937 14.789063 5.574218 21.613281 1.539062l110.128906-65.109375c14.140626-8.363281 22.816407-23.570312 22.816407-39.996093v-229.566407c0-7.429687-4.386719-14.183593-11.210938-17.121093zm0 0" fill="#C0B283"/>
  <g fill="#686868">
    <path d="m251.9375 193.609375c0 9.4375-7.648438 17.082031-17.082031 17.082031-9.433594 0-17.078125-7.644531-17.078125-17.082031 0-9.433594 7.644531-17.078125 17.078125-17.078125 9.433593 0 17.082031 7.644531 17.082031 17.078125zm0 0"/>
    <path d="m251.9375 273.082031c0 9.433594-7.648438 17.082031-17.082031 17.082031-9.433594 0-17.078125-7.648437-17.078125-17.082031 0-9.433593 7.644531-17.082031 17.078125-17.082031 9.433593 0 17.082031 7.648438 17.082031 17.082031zm0 0"/>
    <path d="m251.9375 352.550781c0 9.433594-7.648438 17.082031-17.082031 17.082031-9.433594 0-17.078125-7.648437-17.078125-17.082031 0-9.433593 7.644531-17.082031 17.078125-17.082031 9.433593 0 17.082031 7.648438 17.082031 17.082031zm0 0"/>
    <path d="m284.882812 343.332031v14.242188c0 10.457031 8.476563 18.933593 18.933594 18.933593h58.496094c10.457031 0 18.933594-8.476562 18.933594-18.933593v-14.242188zm0 0"/>
    <path d="m130.066406 343.332031v14.242188c0 10.457031-8.476562 18.933593-18.933594 18.933593h-58.496093c-10.457031 0-18.933594-8.476562-18.933594-18.933593v-14.242188zm0 0"/>
  </g>
</svg>
