<?xml version="1.0" encoding="iso-8859-1"?>
<!-- Generator: Adobe Illustrator 19.0.0, SVG Export Plug-In . SVG Version: 6.00 Build 0)  -->
<svg version="1.1" id="Layer_1" xmlns="http://www.w3.org/2000/svg" xmlns:xlink="http://www.w3.org/1999/xlink" x="0px" y="0px"
	 viewBox="0 0 512 512" style="enable-background:new 0 0 512 512;" xml:space="preserve">
<circle style="fill:#C0B283;" cx="256" cy="256" r="256"/>
<!-- <path style="fill:#121149;" d="M127.016,366.616l144.879,144.879c116.515-7.14,211.965-92.194,234.867-203.731l-199.356-199.93
	l-24.729,61.442l-62.018-61.442l-13.569,37.733L256,194.56L127.016,366.616z"/> -->
<rect x="204.593" y="107.83" style="fill:#fcaa9c;" width="16.065" height="53.012"/>
<rect x="291.34" y="107.83" style="fill:#e28e81;" width="16.065" height="53.012"/>
<path style="fill:#F4F4F4;" d="M256,416.727c74.967,0,94.779-26.774,94.779-26.774s83.535-34.463,28.915-89.615
	s-86.747-92.638-70.682-115.664c16.065-23.026,4.284-48.728,4.284-48.728S287.058,120.417,256,149.332
	c-31.058-28.915-57.296-13.386-57.296-13.386s-11.781,25.703,4.284,48.728s-16.063,60.509-70.682,115.664
	s28.915,89.616,28.915,89.616S181.033,416.727,256,416.727z"/>
<path style="fill:#e2e2e2;" d="M379.695,300.337c-54.618-55.155-86.747-92.638-70.682-115.664
	c16.065-23.026,4.284-48.728,4.284-48.728s-26.238-15.529-57.296,13.386v267.395c74.967,0,94.779-26.774,94.779-26.774
	S434.314,355.492,379.695,300.337z"/>
<path style="fill:#fcaa9c;" d="M206.665,193.376c1.47,7.59-0.76,16.398-6.122,26.507h110.911
	c-5.361-10.109-7.592-18.916-6.122-26.507H206.665z"/>
<path style="fill:#e28e81;" d="M305.335,193.376H256v26.507h55.455C306.095,209.773,303.864,200.966,305.335,193.376z"/>
</svg>
